<?xml version="1.0" encoding="utf-8"?>
<!-- Generator: Adobe Illustrator 26.0.1, SVG Export Plug-In . SVG Version: 6.00 Build 0)  -->
<svg version="1.1" id="Layer_1" xmlns="http://www.w3.org/2000/svg" xmlns:xlink="http://www.w3.org/1999/xlink" x="0px" y="0px"
	 viewBox="0 0 100 100" style="enable-background:new 0 0 100 100;" xml:space="preserve">
<path d="M85,10H15c-2.8,0-5,2.2-5,5v70c0,2.8,2.2,5,5,5h70c2.8,0,5-2.2,5-5V15C90,12.2,87.8,10,85,10z M85,80c0,2.8-2.2,5-5,5H20
	c-2.8,0-5-2.2-5-5V20c0-2.8,2.2-5,5-5h60c2.8,0,5,2.2,5,5V80z"/>
</svg>
