<?xml version="1.0" encoding="utf-8"?>
<!-- Generator: Adobe Illustrator 26.0.1, SVG Export Plug-In . SVG Version: 6.00 Build 0)  -->
<svg version="1.1" id="Layer_1" xmlns="http://www.w3.org/2000/svg" xmlns:xlink="http://www.w3.org/1999/xlink" x="0px" y="0px"
	 viewBox="0 0 100 100" style="enable-background:new 0 0 100 100;" xml:space="preserve">
<path d="M75,0H25c-2.8,0-5,2.2-5,5v90c0,2.8,2.2,5,5,5h50c2.8,0,5-2.2,5-5V5C80,2.2,77.8,0,75,0z M75,90c0,2.8-2.2,5-5,5H30
	c-2.8,0-5-2.2-5-5V10c0-2.8,2.2-5,5-5h40c2.8,0,5,2.2,5,5V90z"/>
</svg>
