<?xml version="1.0" encoding="utf-8"?>
<!-- Generator: Adobe Illustrator 26.0.1, SVG Export Plug-In . SVG Version: 6.00 Build 0)  -->
<svg version="1.1" id="Layer_1" xmlns="http://www.w3.org/2000/svg" xmlns:xlink="http://www.w3.org/1999/xlink" x="0px" y="0px"
	 viewBox="0 0 100 100" xml:space="preserve">
<style type="text/css">
	.st0{fill:#07A081;}
	.st1{fill:#FFFFFF;}
</style>
<path class="st0" d="M80,100H20C8.95,100,0,91.05,0,80V20C0,8.95,8.95,0,20,0h60c11.05,0,20,8.95,20,20v60
	C100,91.05,91.05,100,80,100z"/>
<path class="st1" d="M50.08,10H23.41v80h26.67V63.33c14.65-0.09,26.51-12,26.51-26.67C76.59,21.99,64.73,10.09,50.08,10z M49.92,55
	h-8.25v26.67h-10V18.33h18.25c10.12,0,18.33,8.21,18.33,18.33C68.25,46.79,60.04,55,49.92,55z"/>
</svg>
