<?xml version="1.0" encoding="utf-8"?>
<!-- Generator: Adobe Illustrator 26.0.1, SVG Export Plug-In . SVG Version: 6.00 Build 0)  -->
<svg version="1.1" id="Layer_1" xmlns="http://www.w3.org/2000/svg" xmlns:xlink="http://www.w3.org/1999/xlink" x="0px" y="0px"
	 viewBox="0 0 500 100" style="enable-background:new 0 0 500 100;" xml:space="preserve">
<style type="text/css">
	.st0{fill:#231F20;}
</style>
<path class="st0" d="M50.08,10H23.41v80h26.67V63.33c14.65-0.09,26.51-12,26.51-26.67C76.59,21.99,64.73,10.09,50.08,10z M49.92,55
	h-8.25v26.67h-10V18.33h18.25c10.12,0,18.33,8.21,18.33,18.33C68.25,46.79,60.04,55,49.92,55z"/>
<g>
	<path d="M120,32.32c2.41-0.4,5.57-0.75,9.6-0.75c4.94,0,8.56,1.15,10.86,3.22c2.13,1.84,3.39,4.66,3.39,8.1
		c0,3.51-1.03,6.26-2.99,8.28c-2.64,2.82-6.95,4.25-11.84,4.25c-1.49,0-2.87-0.06-4.02-0.34v15.52h-5V32.32z M125,51
		c1.09,0.29,2.47,0.4,4.14,0.4c6.03,0,9.71-2.93,9.71-8.28c0-5.12-3.62-7.59-9.14-7.59c-2.18,0-3.85,0.17-4.71,0.4V51z"/>
	<path d="M170.63,52.43h-15.06V66.4h16.78v4.2h-21.78V31.86h20.92v4.2h-15.92v12.24h15.06V52.43z"/>
	<path d="M200.06,70.59l-4.94-8.56c-2.01-3.28-3.28-5.4-4.48-7.64h-0.12c-1.09,2.24-2.18,4.31-4.19,7.7l-4.66,8.51h-5.75L187.76,51
		l-11.38-19.14h5.8l5.12,9.08c1.44,2.53,2.53,4.48,3.56,6.55h0.17c1.09-2.3,2.07-4.08,3.51-6.55l5.29-9.08h5.75L193.8,50.71
		l12.07,19.88H200.06z"/>
	<path d="M231.73,52.43h-15.06V66.4h16.78v4.2h-21.78V31.86h20.92v4.2h-15.92v12.24h15.06V52.43z"/>
	<path d="M239.95,31.86h5V66.4h16.55v4.2h-21.55V31.86z"/>
	<path d="M266.38,64.5c2.24,1.38,5.52,2.53,8.97,2.53c5.11,0,8.1-2.7,8.1-6.61c0-3.62-2.07-5.69-7.3-7.7
		c-6.32-2.24-10.23-5.52-10.23-10.98c0-6.03,5-10.52,12.53-10.52c3.97,0,6.84,0.92,8.56,1.9l-1.38,4.08
		c-1.26-0.69-3.85-1.84-7.36-1.84c-5.29,0-7.3,3.16-7.3,5.8c0,3.62,2.36,5.4,7.7,7.47c6.55,2.53,9.88,5.69,9.88,11.38
		c0,5.98-4.43,11.15-13.56,11.15c-3.74,0-7.82-1.09-9.89-2.47L266.38,64.5z"/>
	<path d="M334.66,69.33c-1.84,0.92-5.52,1.84-10.23,1.84c-10.92,0-19.14-6.9-19.14-19.6c0-12.13,8.22-20.34,20.23-20.34
		c4.83,0,7.87,1.03,9.2,1.72l-1.21,4.08c-1.9-0.92-4.6-1.61-7.82-1.61c-9.08,0-15.11,5.8-15.11,15.98c0,9.48,5.46,15.57,14.89,15.57
		c3.05,0,6.15-0.63,8.16-1.61L334.66,69.33z"/>
	<path d="M340.93,31.86h5V66.4h16.55v4.2h-21.55V31.86z"/>
	<path d="M398.92,50.82c0,13.33-8.1,20.4-17.99,20.4c-10.23,0-17.41-7.93-17.41-19.66c0-12.3,7.64-20.34,17.99-20.34
		C392.08,31.23,398.92,39.33,398.92,50.82z M368.86,51.46c0,8.28,4.48,15.69,12.36,15.69c7.93,0,12.41-7.3,12.41-16.09
		c0-7.7-4.02-15.75-12.36-15.75C373,35.31,368.86,42.95,368.86,51.46z"/>
	<path d="M405.41,70.59V31.86h5.46l12.41,19.6c2.87,4.54,5.11,8.62,6.95,12.59l0.12-0.06c-0.46-5.17-0.57-9.88-0.57-15.92V31.86
		h4.71v38.74h-5.06l-12.3-19.66c-2.7-4.31-5.29-8.74-7.24-12.93l-0.17,0.06c0.29,4.88,0.4,9.54,0.4,15.98v16.55H405.41z"/>
	<path d="M463.29,52.43h-15.06V66.4h16.78v4.2h-21.78V31.86h20.92v4.2h-15.92v12.24h15.06V52.43z"/>
</g>
</svg>
