<?xml version="1.0" encoding="utf-8"?>
<!-- Generator: Adobe Illustrator 26.0.1, SVG Export Plug-In . SVG Version: 6.00 Build 0)  -->
<svg version="1.1" id="Layer_1" xmlns="http://www.w3.org/2000/svg" xmlns:xlink="http://www.w3.org/1999/xlink" x="0px" y="0px"
	 viewBox="0 0 100 100" style="enable-background:new 0 0 100 100;" xml:space="preserve">
<g>
	<path d="M49.3,55.3c-11-3.2-19-7.1-24-11.7s-7.5-10.3-7.5-17.1c0-7.7,3.1-14,9.2-19S41,0,50.8,0c6.7,0,12.6,1.3,17.9,3.9
		C73.9,6.5,78,10,80.8,14.6s4.3,9.5,4.3,14.9H72.3c0-5.9-1.9-10.5-5.6-13.9s-9-5.1-15.8-5.1c-6.3,0-11.3,1.4-14.8,4.2
		c-3.5,2.8-5.3,6.7-5.3,11.6c0,4,1.7,7.3,5,10.1c3.4,2.7,9.1,5.3,17.2,7.5s14.4,4.8,19,7.5c4.6,2.7,8,5.9,10.2,9.6s3.3,8,3.3,12.9
		c0,7.9-3.1,14.2-9.2,19C70,97.6,61.8,100,51.5,100c-6.7,0-12.9-1.3-18.7-3.8s-10.3-6.1-13.4-10.5s-4.7-9.5-4.7-15.2h12.9
		c0,5.9,2.2,10.5,6.5,13.9c4.3,3.4,10.1,5.1,17.4,5.1c6.8,0,12-1.4,15.6-4.1s5.4-6.5,5.4-11.3s-1.7-8.5-5-11.1
		C64.1,60.4,58,57.8,49.3,55.3z"/>
</g>
</svg>
